<svg width="43" height="42" viewBox="0 0 43 42" fill="none" xmlns="http://www.w3.org/2000/svg">
<path d="M5.75 17.2447C5.75 15.4527 7.20269 14 8.99468 14V14C10.2237 14 11.3472 13.3056 11.8968 12.2064L13.3944 9.21115C13.9323 8.13531 14.2013 7.5974 14.6846 7.2987C15.1679 7 15.7693 7 16.9721 7H26.0279C27.2307 7 27.8321 7 28.3154 7.2987C28.7987 7.5974 29.0677 8.13531 29.6056 9.21115L31.1032 12.2064C31.6528 13.3056 32.7763 14 34.0053 14V14C35.7973 14 37.25 15.4527 37.25 17.2447V29C37.25 31.8284 37.25 33.2426 36.3713 34.1213C35.4926 35 34.0784 35 31.25 35H11.75C8.92157 35 7.50736 35 6.62868 34.1213C5.75 33.2426 5.75 31.8284 5.75 29V17.2447Z" stroke="white" stroke-width="3"/>
<circle cx="21.5" cy="22.75" r="5.5" stroke="white" stroke-width="3"/>
</svg>
